<?xml version="1.0" standalone="no"?>
<!DOCTYPE svg PUBLIC "-//W3C//DTD SVG 20010904//EN"
 "http://www.w3.org/TR/2001/REC-SVG-20010904/DTD/svg10.dtd">
<svg version="1.0" xmlns="http://www.w3.org/2000/svg"
 width="256.000000pt" height="102.000000pt" viewBox="0 0 256.000000 102.000000"
 preserveAspectRatio="xMidYMid meet">

<g transform="translate(0.000000,102.000000) scale(0.100000,-0.100000)"
fill="#ffffff" stroke="none">
<path d="M2361 1003 c-99 -52 -105 -178 -12 -240 118 -79 265 72 187 192 -38
57 -116 79 -175 48z m64 -63 c3 -6 -4 -10 -17 -10 -31 0 -48 -18 -48 -50 0
-32 17 -50 48 -50 13 0 20 -4 17 -10 -11 -17 -64 -11 -85 10 -26 26 -25 68 2
97 22 24 72 31 83 13z m75 -59 c0 -23 -21 -33 -37 -16 -8 9 -9 15 0 24 17 17
37 13 37 -8z"/>
<path d="M150 458 c-50 -156 -104 -322 -120 -370 l-29 -88 99 0 98 0 14 58 14
57 116 3 115 3 13 -61 13 -60 98 0 c67 0 99 4 99 11 0 10 -86 282 -206 652
l-26 77 -103 0 -104 0 -91 -282z m229 -42 c17 -65 31 -123 31 -127 0 -5 -32
-9 -71 -9 -62 0 -70 2 -65 18 3 9 17 62 31 117 31 119 34 129 39 124 2 -2 18
-58 35 -123z"/>
<path d="M720 370 l0 -370 95 0 95 0 0 150 0 149 123 3 122 3 0 70 0 70 -122
3 -123 3 0 64 0 65 145 0 145 0 0 80 0 80 -240 0 -240 0 0 -370z"/>
<path d="M1360 736 c0 -3 -52 -166 -115 -363 -63 -197 -115 -361 -115 -365 0
-5 43 -8 95 -8 l94 0 11 43 c6 23 13 50 16 60 5 15 19 17 118 17 l113 0 16
-60 17 -60 99 0 99 0 -34 108 c-19 59 -71 224 -117 367 l-84 260 -106 3 c-59
1 -107 0 -107 -2z m140 -316 c17 -62 30 -119 30 -126 0 -10 -17 -14 -65 -14
-75 0 -74 -3 -46 102 11 40 25 93 31 117 6 23 13 41 16 38 3 -2 18 -55 34
-117z"/>
<path d="M1848 734 c-5 -4 -8 -171 -8 -371 l0 -363 163 0 c250 0 310 25 377
155 l35 68 0 141 c-1 121 -4 149 -23 196 -29 73 -72 123 -129 151 -44 22 -64
24 -228 27 -99 2 -183 1 -187 -4z m311 -177 c50 -25 66 -71 66 -192 0 -163
-22 -195 -134 -195 l-61 0 0 200 0 200 53 0 c28 0 63 -6 76 -13z"/>
</g>
</svg>
